<?xml version="1.0" encoding="UTF-8" standalone="no"?>
<!-- Created with Inkscape (http://www.inkscape.org/) -->

<svg
   version="1.1"
   id="svg2"
   width="4002.6667"
   height="4002.6667"
   viewBox="0 0 4002.6667 4002.6667"
   sodipodi:docname="vecteezy_the-sims-logo-with-green-diamonds_54024882.eps"
   xmlns:inkscape="http://www.inkscape.org/namespaces/inkscape"
   xmlns:sodipodi="http://sodipodi.sourceforge.net/DTD/sodipodi-0.dtd"
   xmlns="http://www.w3.org/2000/svg"
   xmlns:svg="http://www.w3.org/2000/svg">
  <defs
     id="defs6" />
  <sodipodi:namedview
     id="namedview4"
     pagecolor="#ffffff"
     bordercolor="#000000"
     borderopacity="0.25"
     inkscape:showpageshadow="2"
     inkscape:pageopacity="0.0"
     inkscape:pagecheckerboard="0"
     inkscape:deskcolor="#d1d1d1" />
  <g
     id="g8"
     inkscape:groupmode="layer"
     inkscape:label="ink_ext_XXXXXX"
     transform="matrix(1.3333333,0,0,-1.3333333,0,4002.6667)">
    <g
       id="g10"
       transform="scale(0.1)">
      <path
         d="M 10,30010 H 30010 V 10 H 10 Z"
         style="fill:none;stroke:#000000;stroke-width:5.6693;stroke-linecap:butt;stroke-linejoin:miter;stroke-miterlimit:22.9256;stroke-dasharray:none;stroke-opacity:1"
         id="path12" />
      <path
         d="m 18606,15543.1 c 6.1,-44.3 27.3,-61.9 52.7,-105.3 31.7,-53.8 90.8,-143.7 94,-188.6 -48.8,0 -85.8,-7.6 -113.9,20.2 l -593.8,1046.9 c -15.9,28 -7.9,17 -22.6,48.8 -1,2 -2,4.7 -3,6.6 l -150.9,238 c -18.8,24.2 -8.7,8.1 -22.5,33.7 l -446.7,807.3 c -103.6,159.5 -195.9,337 -298.8,499.3 l -234.7,414.6 c -93.1,183 -271.2,476.9 -383,678.2 l -93.5,176.3 c -35.4,45.1 -67,113.2 -97.8,162.8 l -187.3,333 c -40.3,67.4 -65.8,107 -98.9,172.7 -122.5,242.3 -211.4,280.3 -286.4,625 -11.6,53.3 -25,61.1 -20,109.3 -11,-14.9 -8.1,-0.3 14.9,-6.4 -6.5,22.2 -33.3,82.1 -50.2,90.6 -26.3,-55.1 51.7,-263.4 71.3,-331.6 17.5,-60.8 29.8,-98.1 45.6,-162.8 l 249.3,-940.8 c 18.2,-54.8 59.3,-212 63.7,-271.3 4,-53.2 4.7,-44.6 16.9,-83 25,-79.3 34.6,-166 55.2,-213 l 13.5,-50.2 c 2.8,-16.3 2.2,-22 7.8,-39.5 l 5.5,-13.7 c 33.2,-84.5 36.6,-122.3 54,-197 l 52.9,-162.5 c 28.9,-160 115.2,-436.2 137.8,-570.1 23.1,-136.7 18.8,-39.6 35.9,-120.5 l 90,-339.6 c 8.1,-54.2 13.1,-43 25.8,-80.6 18.5,-54.8 29.9,-118.3 47.7,-171.7 l 107.8,-434 c 38.3,-150.1 113.9,-384.2 137.4,-524.9 10.2,-61.4 14.1,-43.9 25,-82.4 7,-25 22.1,-148.4 48.4,-212.8 l 26.6,-83.2 c 14.2,-34.2 6.9,5.7 15.9,-41.8 24.5,-128 49.6,-239.2 95,-346.3 l 1687.2,-3 c 0.1,55.6 -84.7,177.7 -119.3,240.1 -19.8,35.8 -20.5,50.5 -54.5,73.2"
         style="fill:#3db300;fill-opacity:1;fill-rule:evenodd;stroke:none"
         id="path14" />
      <path
         d="m 15774.7,9765.05 c 31,14.63 13.9,-4.94 38.7,32.45 l 57.2,100.7 c 1.1,1.78 2.8,4.18 3.8,5.97 l 183.7,326.63 c 35.9,59.7 57.3,105 93,157.6 l 39.8,67.7 c 65,136.1 242,421.7 320.2,573 l 81.6,160.1 c 6.9,12.3 7.2,10 11.6,15.5 l 85.9,134.8 c 33.7,59.2 58.2,104.2 90.4,160 l 135.8,231.1 c 16.8,35.5 33.6,50.9 48.2,83.1 84.2,186.5 212.5,361.8 290.4,522.6 l 311.1,549.1 c 7.9,15 0.4,1.1 10.7,19.1 4.3,7.4 13,21.7 15,24.7 l 46,73.8 c 19.8,34.3 28.6,49.1 46.7,83.5 42.7,81.1 -2.4,23.9 53.3,95.3 31.1,39.8 13.2,36.5 46.3,83.6 l 216.7,375.1 c 14.3,26.6 36,51.6 51.4,75.9 32.7,51.2 61.3,109.6 90.2,159.8 l 112.8,197.4 c 11.6,27 6.4,20.2 19,42.4 l 139.6,239.3 c 38.4,71.6 59.4,87.3 71.3,107.4 l 44.2,84.4 c 106.4,200.2 74.4,223.9 223.6,223.9 l -2,-46.8 c 25.9,20.8 28.8,30.3 28.9,65.9 l -1669.8,-0.7 c -51.9,-10.6 -69,-169.4 -76.8,-228.4 l -214.4,-777.6 c -10.4,-39.1 -12.6,-32.3 -19.6,-83.1 l -97.5,-393.7 c -13.1,-40.1 -12.7,-19 -23.7,-74.8 l -124.7,-474.9 c -9.4,-30 -14.2,-44.6 -21.3,-78.2 l -285.8,-1109 c -7.7,-39.1 -1.7,-50.3 -15.2,-83.1 -9.2,-22.3 -6.9,-3.3 -14.3,-36.9 -4.4,-19.7 -2.5,-29.8 -5,-48.3 l -44,-151.7 c -14.1,-34.6 -9.9,-45.7 -20.4,-80.4 -11.6,-38 -12.5,-24.5 -24.3,-75.2 -7.9,-34 -13.7,-39.2 -22.3,-65 l -84.8,-314.4 c -8.6,-31 -6.1,-60.4 -15.4,-87 l -104.1,-386 c -7.4,-28.7 -8.2,-52.1 -18.3,-81.4 l -44.1,-156.5 c -14.5,-75.66 -52.1,-171.26 -59.3,-238.75"
         style="fill:#3db300;fill-opacity:1;fill-rule:evenodd;stroke:none"
         id="path16" />
      <path
         d="m 13403.6,15254.1 c 20.6,-31 -17.8,-10.9 45.9,-21.5 l 3169.3,7.6 c 2.3,46.8 -118.4,475.8 -139.1,560.1 l -92.9,379.8 c -6.3,50.2 -17.2,40.7 -27.6,90.3 l -66,285.4 c -43.8,113.8 8.1,27.4 -56.3,181.4 l -49.6,180.3 c -32.4,129.7 -52.6,237.8 -95.3,375.8 -16.1,51.7 -15.9,19.1 -29.2,86.4 l -76.1,273.8 c -10.7,30.1 -14.8,64.1 -25.3,94.3 -19.6,56.6 -64.6,306.8 -94.6,377.6 l -119.3,471.9 c -13.8,64.3 -28.2,123.6 -45.7,184.4 -12.8,44.7 -10.5,58.6 -19.1,105.9 l -221.5,834.2 c -50.3,102.7 -3.6,95.3 -59.2,231.8 -11.8,29 -5.3,19.4 -10.9,53.4 -8.9,53.6 -19.4,35.9 -27,92.6 -9.1,67.7 -80.2,266.3 -106.5,355.2 l -44.6,185.2 c -7.7,62.3 -18.4,38.1 -27.8,91.2 -8.5,47.4 -12.5,62 -22.9,100.4 -17.3,64.2 -26.2,132.5 -47,193.8 l -45.1,163.8 c -8,19.5 -3.4,12.9 -13.2,25.1 -8.3,-98.3 26.6,-103.5 -6.2,-223.5 -15.7,-57.6 -23.5,-130.4 -44.4,-188 -12.4,-34 -18,-29.7 -24.3,-82.5 l -78.2,-281.2 c -8.5,-28.2 -8.1,-62.9 -16.8,-96.1 -4.9,-18.7 -21.2,-53.7 -32.6,-84.1 l -70.2,-269.3 c -7.7,-26.1 -21.1,-137.6 -42.3,-202.7 l -99.9,-357.2 c -10.4,-32.1 -9.4,-68.6 -20.3,-102.2 l -46.2,-186.8 c -9.8,-45.1 -15.8,-58.4 -25.3,-93.1 l -44.3,-185.5 c -14.4,-40.5 -5.5,6 -16.9,-43.1 -4.7,-20.2 -3.3,-35.1 -7.3,-55 l -26.7,-93.3 c -7.7,-50.5 -16.7,-40.6 -29.7,-85.4 -9.9,-34.1 -20,-59.2 -24.6,-86.3 -17.1,-101.9 6.8,-15.6 -24.5,-94.2 l -70,-282.1 c -11.5,-47 -19.3,-24.7 -29.2,-83.3 -9.5,-56.8 -32.6,-133.7 -48.1,-186.1 l -68.9,-282.5 c -7.4,-43.4 -16.6,-54.9 -26.4,-93 -6.6,-25.7 -3.6,-19.1 -11.5,-39.6 -38,-98.1 -42,-221.6 -50,-254.7 -10.4,-43.4 -8.9,24 -28.3,-91.6 -8.9,-53 -15.3,-25.9 -26.1,-82.7 l -174.8,-641 c -9.2,-48.9 -9.9,-49.1 -22.7,-87.4 l -48.3,-193 c -17.6,-47 -11.8,-34.6 -23.4,-96.4 l -51.6,-175.9 c -14.9,-59.7 -29.9,-140.2 -49.1,-192.5 -21.5,-58.8 -27.1,-124.1 -43.3,-190.1 -15.5,-62.9 -19.4,-3.5 -29.9,-82.6 -15.8,-118.2 -30.5,-91.5 -171.1,-96.2"
         style="fill:#388a03;fill-opacity:1;fill-rule:evenodd;stroke:none"
         id="path18" />
      <path
         d="m 15057.1,8805.65 c 9.4,11.94 5.2,6.23 13.1,25.08 31.2,74.26 23.9,146.56 35.6,176.7 66,169.82 76,297.65 131,467.05 8.6,26.45 11.7,60.27 20.9,90.56 10.1,33.39 10.8,68.49 20.2,100.81 l 228.9,826.95 c 11.6,52.7 30.7,137.8 48.8,181 l 97,372.9 c 64,252.1 124.2,493.4 193.1,748.5 l 34.7,147.1 c 7.2,25.3 4.2,31.4 8.3,54.7 l 52.6,174.9 c 17.3,77 -9.8,6.3 24.5,93.1 14.9,37.7 4.3,63.6 19.6,102.8 32.6,83.1 36.8,78.4 50.5,181.1 6.3,47.5 18.2,47.6 26.9,91.4 l 70.2,225.4 c 42.4,106.7 11.5,123.6 58.3,233 22.6,53 13.5,25.5 24.2,91.3 8.7,53.8 15.7,29.6 23,90.1 l 71.7,290.3 c 13.2,38.6 12.8,47.8 21.2,89.1 l 101.3,366.8 c 44,134.4 187.3,729.1 186.1,753.5 -94.9,11.5 -1472.9,3.3 -1608.8,3.3 -439.4,0 -1075,-12.8 -1510,3.8 -27.6,1.1 -80.7,2.6 -96.5,-20.5 l 137.7,-0.8 c 7,-21.8 22,-7.6 33.5,-85.8 l 61.3,-289.4 c 9.9,-30.5 39.4,-55.5 53.6,-179.4 l 52.6,-182.1 c 36,-101.6 19.8,-130.4 57.6,-232.7 18.4,-49.8 1.9,-59.3 20,-98.4 20.2,-43.8 2.3,29.8 18.2,-46.8 l 50.2,-175.2 c 24.2,-68 30.2,-122.4 41.8,-204.2 5.8,-40.6 16.4,-18.4 27.8,-80.6 l 77.5,-267.6 c 17.6,-59.2 29,-122.3 46.6,-182.2 17.4,-59.1 32.3,-130.3 49.8,-192.1 15.5,-54.5 32.9,-123.3 50.7,-176.4 l 173.2,-644.9 c 22.9,-63.1 -8.3,-35.4 33.9,-137 l 135.1,-514.5 c 16.9,-47.2 10.9,-23.7 22.1,-86.2 6.8,-38.1 18.1,-45.1 26.3,-92.8 l 9.8,-43 c 0.9,-2.5 2.2,-4.9 3.1,-7.3 35.8,-88.6 9.9,-74.2 33.6,-147.3 16.1,-49.7 32.1,-133.4 44.9,-187.4 l 223.2,-835.2 c 10.1,-38.6 7.9,-66.44 19.8,-102.8 l 123.3,-454.31 c 73.7,-191.19 19.7,-221.96 26.4,-314.34"
         style="fill:#388a03;fill-opacity:1;fill-rule:evenodd;stroke:none"
         id="path20" />
      <path
         d="m 15057.1,8805.65 c 4.8,-31.26 -9.2,-51.02 -15.3,-87.31 -6.7,-40.24 -0.6,-72.88 -31.8,-84.59 -34,12.27 -24.3,38.46 -32.6,82.62 l -172,672.33 c -8.2,45.1 -17,42.91 -27.2,90.88 -9.3,43.96 -19.8,57.71 -26.7,91.95 -38,190.14 -64.2,241.61 -95.3,386.49 l -81.3,285.68 c -10.6,42.5 -7.7,59.4 -21.3,101.3 l -54.1,182.4 c -11.8,33.6 -14.5,62.8 -26.9,93.6 l -346.2,1355.3 c -25.5,117 -195,677.3 -202.3,753.7 -8.7,92.2 -50,108.7 -56.9,180.3 -8.6,89.7 -18.8,54.7 -27.4,93.4 -12.5,56.5 7.6,48.7 -19.9,104.9 -14.3,29.1 -27.7,153 -50.4,200.6 -26.2,55 -14.4,28.6 -23.3,91.3 -7.8,55.4 -19.7,37.8 -27.6,92 -8.4,57.9 -10.5,60.2 -22.4,101.8 l -123.1,488 c -10.2,40.5 -21.9,51.3 -28,89 -20.9,129.7 -138.6,523.5 -141.6,595.1 15.8,23.1 68.9,21.6 96.5,20.5 435,-16.6 1070.6,-3.8 1510,-3.8 135.9,0 1513.9,8.2 1608.8,-3.3 1.2,-24.4 -142.1,-619.1 -186.1,-753.5 l -101.3,-366.8 c -8.4,-41.3 -8,-50.5 -21.2,-89.1 l -71.7,-290.3 c -7.3,-60.5 -14.3,-36.3 -23,-90.1 -10.7,-65.8 -1.6,-38.3 -24.2,-91.3 -46.8,-109.4 -15.9,-126.3 -58.3,-233 l -70.2,-225.4 c -8.7,-43.8 -20.6,-43.9 -26.9,-91.4 -13.7,-102.7 -17.9,-98 -50.5,-181.1 -15.3,-39.2 -4.7,-65.1 -19.6,-102.8 -34.3,-86.8 -7.2,-16.1 -24.5,-93.1 l -52.6,-174.9 c -4.1,-23.3 -1.1,-29.4 -8.3,-54.7 l -34.7,-147.1 c -68.9,-255.1 -129.1,-496.4 -193.1,-748.5 l -97,-372.9 c -18.1,-43.2 -37.2,-128.3 -48.8,-181 l -228.9,-826.95 c -9.4,-32.32 -10.1,-67.42 -20.2,-100.81 -9.2,-30.29 -12.3,-64.11 -20.9,-90.56 -55,-169.4 -65,-297.23 -131,-467.05 -11.7,-30.14 -4.4,-102.44 -35.6,-176.7 -7.9,-18.85 -3.7,-13.14 -13.1,-25.08 z M 14947.7,22510 h 130.1 c 15.1,-3.1 28.6,-7.4 39.5,-12.8 4.8,-2.4 20,-11.2 25.4,-14.5 40.4,-25.5 58.7,-56.4 82.9,-97.1 l 211.1,-368.9 c 1.1,-1.8 2.7,-4.3 3.9,-6.1 1.1,-1.9 2.8,-4.3 3.9,-6.1 1.1,-1.9 2.8,-4.3 3.9,-6.1 l 61.1,-108.9 c 12.3,-20.5 19.5,-35.3 32.3,-57.7 l 160.5,-279.5 c 7.1,-13.6 10.9,-22.4 16.4,-33.6 l 413.1,-716.9 c 3.6,-6.4 8.7,-16.3 13.9,-26.1 6.8,-13 10.2,-20.5 17.2,-32.8 1.1,-1.9 2.7,-4.3 3.8,-6.2 l 51.5,-88.5 c 1.1,-1.9 2.5,-4.5 3.6,-6.4 1.1,-1.9 2.6,-4.4 3.7,-6.3 1.1,-1.9 2.6,-4.4 3.7,-6.3 l 92.8,-167.2 c 1.4,-2.5 11.9,-20.5 14.7,-25.3 l 302.4,-527.6 c 7.4,-12.9 5.5,-7.6 15.5,-24.5 l 109.9,-190.1 c 1.1,-1.9 2.8,-4.3 3.9,-6.1 10.2,-17.7 3.9,-7 13.6,-26.4 9.9,-19.5 18.7,-33.9 32.2,-57.8 l 51.3,-88.7 c 9.1,-15.1 8.8,-13 15.4,-24.6 l 112.2,-197.8 c 1.2,-1.8 2.8,-4.3 3.8,-6.2 1.1,-1.9 2.6,-4.4 3.7,-6.3 l 13.2,-26.8 c 1,-2 2.3,-4.7 3.4,-6.6 l 274.1,-475.9 c 42.2,-77.3 93.2,-151.2 114.5,-236.3 12.9,-51.5 -2.2,-65.3 -14.4,-106.4 l -48.8,-81.3 c -16.5,-18.4 -24.3,-25.3 -42.6,-35.7 -41.7,-4.5 -40.6,-20.4 -109.6,-22.2 -36.6,-0.9 -80,-2.1 -108.3,13.5 -84.3,46.4 -158.8,196.7 -210.1,289.6 l -349.4,599.8 c -27.8,42.7 -24.7,58.7 -50.3,100.3 l -295.5,513.1 c -6.1,13.6 -12.4,23.2 -22.1,38.7 -17.1,27.2 -26.3,46.7 -42.9,76.9 l -133.8,237.3 c -26.2,53.3 -57.3,109.2 -86.4,153.3 -34.7,52.7 -61.6,105.3 -90.4,160.1 l -87.4,143.5 c -6.5,22.2 -33.3,82.1 -50.2,90.6 -26.3,-55.1 51.7,-263.4 71.3,-331.6 17.5,-60.8 29.8,-98.1 45.6,-162.8 l 249.3,-940.8 c 18.2,-54.8 59.3,-212 63.7,-271.3 4,-53.2 4.7,-44.6 16.9,-83 25,-79.3 34.6,-166 55.2,-213 l 13.5,-50.2 c 2.8,-16.3 2.2,-22 7.8,-39.5 l 5.5,-13.7 c 33.2,-84.5 36.6,-122.3 54,-197 l 52.9,-162.5 c 28.9,-160 115.2,-436.2 137.8,-570.1 23.1,-136.7 18.8,-39.6 35.9,-120.5 l 90,-339.6 c 8.1,-54.2 13.1,-43 25.8,-80.6 18.5,-54.8 29.9,-118.3 47.7,-171.7 l 107.8,-434 c 38.3,-150.1 113.9,-384.2 137.4,-524.9 10.2,-61.4 14.1,-43.9 25,-82.4 7,-25 22.1,-148.4 48.4,-212.8 l 26.6,-83.2 c 14.2,-34.2 6.9,5.7 15.9,-41.8 24.5,-128 49.6,-239.2 95,-346.3 l 1687.2,-3 c 0.1,55.6 -84.7,177.7 -119.3,240.1 -19.8,35.8 -20.5,50.5 -54.5,73.2 -1.3,32.5 -2,13.2 -15.3,36.3 l -174.9,317 c -17.5,32.4 -24,46.3 -38.7,71.3 l -41.1,68.6 c -12.1,19.5 -26,44.9 -40.3,69.4 l -102.9,197.8 c -1.1,1.7 -3,4 -4.1,5.7 -1.2,1.7 -3.1,4 -4.3,5.7 l -528.7,900.2 c -112.7,226.9 -227.4,320.7 -158.9,477.5 28.5,65.3 61.5,71.4 97.2,117.4 66.5,32.1 143.3,28.4 208.1,-7.9 1.9,-1.1 4.5,-2.5 6.4,-3.6 43.2,-24.7 72.5,-59.1 97.3,-102.7 l 181.3,-318.7 c 1,-2 2.4,-4.5 3.5,-6.5 l 248.1,-431.9 c 5.2,-9.7 11.5,-20.9 18.1,-31.9 l 82.5,-147.5 c 14.6,-25.5 26.7,-43.2 41.3,-68.7 7.8,-13.7 12,-22.7 21.2,-38.8 9.8,-17.2 12.3,-18.1 22.7,-37.3 17.1,-31.2 20.7,-41.3 38.7,-71.3 l 393.9,-686.1 c 12,-20.1 5.4,-8.6 17.2,-32.8 25.6,-52 52.4,-88 80.5,-139.5 l 210.7,-369.3 c 89.5,-169 193.6,-254.9 102.6,-433.6 l -205,-355 c -1.6,-2.5 -6.1,-9.8 -7.6,-12.4 -1.1,-1.9 -2.6,-4.4 -3.7,-6.3 l -49.5,-90.5 c -6,-11.4 -15.3,-28.4 -21.4,-38.6 -9.4,-15.4 -10.1,-14.9 -19.1,-30.9 -28.5,-50.2 -59.3,-95.6 -84.3,-145.7 -4.1,-8.1 -5.8,-13.3 -9.5,-20.5 l -131.5,-228.5 c -1.1,-1.9 -2.5,-4.4 -3.6,-6.4 l -102,-178 c -11.2,-18.3 -9.9,-14.4 -22.7,-37.3 -6.7,-12.1 -10.6,-19.6 -17.7,-32.3 -13.5,-24.7 -26.7,-49.4 -38.6,-71.4 -13,-24.1 -5.6,-15 -23.2,-36.8 -26.5,-32.7 -50.2,-62.5 -93.1,-77 -68.8,-23.1 -120.5,-4.3 -195.4,-4.3 -16.4,92.5 -120.2,44.2 -107.7,250.8 5.4,89.7 181,366.5 237.9,457.5 l 82,149.4 c 15.6,25.2 26.5,40 41.7,67.6 l 156.8,288.9 c 25.9,20.8 28.8,30.3 28.9,65.9 l -1669.8,-0.7 c -51.9,-10.6 -69,-169.4 -76.8,-228.4 l -214.4,-777.6 c -10.4,-39.1 -12.6,-32.3 -19.6,-83.1 l -97.5,-393.7 c -13.1,-40.1 -12.7,-19 -23.7,-74.8 l -124.7,-474.9 c -9.4,-30 -14.2,-44.6 -21.3,-78.2 l -285.8,-1109 c -7.7,-39.1 -1.7,-50.3 -15.2,-83.1 -9.2,-22.3 -6.9,-3.3 -14.3,-36.9 -4.4,-19.7 -2.5,-29.8 -5,-48.3 l -44,-151.7 c -14.1,-34.6 -9.9,-45.7 -20.4,-80.4 -11.6,-38 -12.5,-24.5 -24.3,-75.2 -7.9,-34 -13.7,-39.2 -22.3,-65 l -84.8,-314.4 c -8.6,-31 -6.1,-60.4 -15.4,-87 l -104.1,-386 c -7.4,-28.7 -8.2,-52.1 -18.3,-81.4 l -44.1,-156.5 c -14.5,-75.66 -52.1,-171.26 -59.3,-238.75 -10.4,-25.63 -24.8,-62.15 -33.3,-105.46 -14.3,-73.1 -12.4,-4.58 -30.4,-108.42 -15.9,-91.61 -62.4,-184.31 -41,-220.19 l 73.1,126.5 c 11.4,18.96 23.4,43.71 36.2,63.86 83.6,130.82 174.7,287.34 243.3,427.14 l 16.2,34.51 c 6.9,12.46 9.5,14.31 19.8,28.51 21.3,29.3 239.9,404.2 261.2,462.1 35.9,97.3 13.6,22.4 52.4,84.8 13.2,21.2 18.3,38.7 34.5,66.1 15,25.4 20.9,35.1 33.3,56.8 l 141.1,238 c 48,92.6 96.5,150.2 107.7,178.8 l 98.8,184.8 c 49.1,90.3 92.5,161.2 143.5,245.6 l 489.2,861.5 c 99.2,151.7 286.6,529.6 354.1,595.7 26.8,26.2 75.9,57.8 125.4,60.9 150,9.3 61.8,-25.9 160.2,-27.5 20,-28.2 43,-40.8 59.6,-69.5 l 22.5,-47.5 c 16.7,-45.3 13.9,-130 -5.7,-168.5 l -42.4,-77.6 c -1.4,-2.7 -5.4,-10.5 -6.9,-13.1 l -145,-255 c -8.7,-15.4 -9.1,-14.5 -11.5,-18.5 l -106.1,-183.9 c -3.5,-5.6 -10.2,-16.1 -11.6,-18.4 l -206.3,-363.7 c -1.2,-1.8 -2.7,-4.3 -3.8,-6.2 l -64.6,-115.4 c -8.4,-14.8 -6.4,-10 -15.2,-24.8 -9.5,-15.8 -2.8,-4.2 -10.9,-19.1 l -392.7,-687.3 c -8.3,-14.4 -14.5,-27.6 -24.8,-45.2 l -276.8,-483.2 c -7.8,-14.2 -13.3,-22.2 -22.1,-37.9 l -505.1,-884.87 c -1.2,-1.85 -2.8,-4.28 -3.9,-6.15 -1.1,-1.87 -2.7,-4.33 -3.8,-6.23 l -104.6,-185.34 c -10.8,-18.53 -2.5,-3.07 -11.6,-18.42 l -298,-522.02 c -6.3,-11.84 -5.3,-10.71 -14.3,-25.71 -1.1,-1.86 -2.7,-4.25 -3.9,-6.11 l -53.5,-96.46 c -2.8,-4.68 -7.1,-11.23 -11.5,-18.5 -5,-8.36 -6,-10.61 -11,-18.99 l -323.7,-566.29 c -9.1,-15.09 -4.7,-5.15 -15.3,-24.68 l -68.2,-121.82 c -1,-2.04 -2.2,-4.73 -3.3,-6.75 l -134.7,-235.29 c -30.4,-50.56 -56.2,-90.04 -112,-117.92 -12.6,-6.25 -28.3,-10.28 -45.5,-12.75 h -130.7 c -14.7,0.77 -6.9,-0.67 -25,6.14 -3,1.12 -10.6,5.24 -13.3,6.68 l -41.8,28.2 c -32.4,24.48 -43.5,43.81 -62.9,77.03 l -155.4,274.66 c -1,1.98 -2.5,4.51 -3.5,6.46 l -21.2,38.8 c -9.7,17.89 -9.1,16.55 -22.7,37.29 -4.2,6.23 -8.9,13.16 -12.1,17.97 -11.8,18.04 -1.5,0.69 -11.7,18.27 -10.1,17.41 -13.6,27.95 -23.6,46.45 -7,13.02 -13.3,23.21 -22.2,37.76 l -324.5,565.51 c -8.4,15.76 -14.4,28.98 -24.1,45.84 l -443.8,776.2 c -1.2,1.87 -2.7,4.31 -3.9,6.17 l -254.9,445.03 c -1.2,1.86 -2.7,4.37 -3.8,6.23 l -222.8,387.21 c -8.2,14.8 -11.5,24.4 -20,40 l -372.3,647.7 c -19.4,30.7 -31.5,51 -46.7,83.3 l -395.6,694.4 c -9.2,15.4 -0.7,-0.4 -11.7,18.3 -48.3,83.2 -127.2,181 -109.7,285.7 11.7,69.8 37.3,122.9 98.1,159.5 55.3,-2.5 193.9,77.3 296.7,-51.3 l 248.5,-410.5 c 20.8,-32.2 35.1,-62.4 50.3,-88.9 11.4,-19.9 18.7,-33.8 29.3,-50.9 7.1,-11.5 -1.8,2 7.8,-12.6 l 8.3,-11.9 c 13.3,-19.1 -0.7,2.7 12.3,-17 51.7,-78.4 153.4,-283.8 209,-382 l 99.4,-159.4 c 1.1,-1.7 2.9,-4 4,-5.7 27.5,-45.2 4.6,-28.5 60.4,-110.1 l 160.9,-290.1 c 18,-30.7 43.1,-60.5 54.7,-82.5 l 448,-781.17 c 1,-2.48 2.1,-5.12 3.1,-7.57 l 157.2,-297.25 c 1.1,-2.07 2.3,-4.75 3.5,-6.75 17.4,-31.02 2.2,-17.55 29.1,-33.71 9,-46.58 35,-83.14 61.1,-126.03 9.1,-14.97 -0.6,-14.35 21.9,-26.7 14.7,29.03 10,48.42 -2.1,79.34 -27.6,71.07 -30.3,171.44 -65.9,265.76 l -72.2,257.65 c -6,29.46 -13.2,40.08 -22.6,78.14 -7,28.59 -17.5,54.39 -24.6,84.79 l -49.7,230 c -11.8,24.6 -1,-1 -15.5,33.9 -11.4,27.3 -20.8,50.9 -28.2,79.3 -2.9,10.9 -2.7,13.2 -6.7,24.4 -7.5,21 -2.4,5.1 -9.4,20.2 l -94.8,385.9 c -6.5,22 -6.1,27.9 -13.6,46.9 -38.9,98.4 -13.2,51.3 -32.6,124.5 l -110.6,430.9 c -7.7,37.7 -19.7,46.3 -25.3,83.9 l -309,1214 c -55.4,138.2 -24.4,71.7 -47.8,171.3 -7.1,29.9 -18.3,47.3 -26,81.6 l -136,514.7 c -13.5,32.8 -8.8,56.8 -20.9,89.7 -13.7,37.3 -13.7,30.7 -23.6,83.9 -7.5,40.2 -14.5,56.4 -20.7,94.5 l -56.2,222.2 c -40.7,108.2 -24.5,135.9 -80.8,287.5 -13.9,37.6 -8.9,57.7 -16.7,97 -4.8,24.3 -16.7,48.7 -24.4,72.9 -33,103.4 -58.7,308.9 -109.6,320 l -1630.4,1.9 c -16.3,-1.6 -12.9,-2 -25.1,-5.2 -1.8,-0.5 -5.9,-5.2 -7.1,-3 -1.2,2.1 -4.7,-1.9 -6.8,-3.3 3.4,-41 -4.9,-21.8 24,-40.6 3,-25 117.6,-216.6 132,-242.2 l 622,-1088.1 c 54,-97.3 169.8,-280.8 198.6,-373.8 40.4,-130.5 -62.1,-198.6 -117.2,-255.9 -217.8,-107.2 -295.9,97.9 -389.2,251.4 l -91.4,158.6 c -1.1,1.9 -2.8,4.3 -3.9,6.1 -1.1,1.9 -2.8,4.3 -3.9,6.1 L 11297,13757 c -11.7,19 -6.4,8.7 -18.8,31.2 l -175.2,304.9 c -11.9,20.5 -16.4,30.9 -28.4,51.5 l -32.6,57.4 c -1.1,1.9 -2.6,4.4 -3.7,6.3 -1.1,1.9 -2.7,4.3 -3.9,6.1 l -87.4,152.6 c -11.5,18.6 -6.5,9.1 -18.8,31.2 L 10738,14738 c -52.8,97.9 -159.4,209.5 -114.2,328 37.8,98.8 95.2,189.9 149.5,280.7 l 131.1,228.9 c 11.1,22.6 18.2,37.4 31,59 l 430.8,749.2 c 1.1,2 2.3,4.7 3.3,6.7 l 145,255 c 1.1,1.9 2.5,4.5 3.6,6.3 l 97.4,172.7 c 1.1,1.8 2.8,4.2 3.9,6.1 l 128.5,221.5 c 5.8,11.2 6.5,15.3 12.8,27.2 9.6,18.3 23.4,34 35.1,54.9 l 31,59 c 1.6,2.5 6.1,9.8 7.7,12.3 l 327.3,572.7 c 1.1,1.9 2.6,4.4 3.7,6.3 l 487.5,852.5 c 52.4,95.8 112.2,183.3 159,281 l 187.2,322.8 c 1.1,1.9 2.6,4.4 3.6,6.4 l 151.7,268.3 c 1.1,1.9 2.5,4.5 3.6,6.3 l 22.8,37.3 c 6.1,10.2 6.7,11.7 14.3,25.7 l 78.9,141.1 c 6.3,11.7 8.2,16.1 14,26 l 295.4,514.6 c 1.1,1.9 2.5,4.4 3.6,6.4 l 199.8,350.2 c 1.1,1.8 2.7,4.3 3.9,6.1 l 54.8,95.2 c 1.1,1.9 2.7,4.3 3.8,6.1 l 298.5,521.6 c 1.1,2 2.3,4.6 3.4,6.6 6.3,11.9 5.3,10.7 14.3,25.7 l 110,190 c 1.2,1.8 2.7,4.3 3.8,6.2 l 359.8,630.2 c 1,2 2.5,4.5 3.5,6.5 l 46.5,83.5 c 9.5,15.5 10.1,15.3 19,31 l 47.5,82.5 c 37.2,67.7 66.6,131.6 134.9,175.1 14.7,9.4 34.8,16.2 57.1,20.6 z m 109.3,-1295.7 c 9.8,-12.2 5.2,-5.6 13.2,-25.1 l 45.1,-163.8 c 20.8,-61.3 29.7,-129.6 47,-193.8 10.4,-38.4 14.4,-53 22.9,-100.4 9.4,-53.1 20.1,-28.9 27.8,-91.2 l 44.6,-185.2 c 26.3,-88.9 97.4,-287.5 106.5,-355.2 7.6,-56.7 18.1,-39 27,-92.6 5.6,-34 -0.9,-24.4 10.9,-53.4 55.6,-136.5 8.9,-129.1 59.2,-231.8 l 221.5,-834.2 c 8.6,-47.3 6.3,-61.2 19.1,-105.9 17.5,-60.8 31.9,-120.1 45.7,-184.4 l 119.3,-471.9 c 30,-70.8 75,-321 94.6,-377.6 10.5,-30.2 14.6,-64.2 25.3,-94.3 l 76.1,-273.8 c 13.3,-67.3 13.1,-34.7 29.2,-86.4 42.7,-138 62.9,-246.1 95.3,-375.8 l 49.6,-180.3 c 64.4,-154 12.5,-67.6 56.3,-181.4 l 66,-285.4 c 10.4,-49.6 21.3,-40.1 27.6,-90.3 l 92.9,-379.8 c 20.7,-84.3 141.4,-513.3 139.1,-560.1 l -3169.3,-7.6 c -63.7,10.6 -25.3,-9.5 -45.9,21.5 2.4,51.2 77.8,345.1 95.8,386.5 19.8,45.3 11.2,46.1 23.6,94.8 l 49.5,191.6 c 11.6,46.3 18.9,50.4 26.6,93.1 28.7,159.6 124.6,444.2 149.6,569.3 35.5,177.3 123.4,469.9 170.9,672.8 11.2,47.6 18.9,59 27.1,91 l 67.9,296.6 c 6.8,53.3 14.7,30.1 29,87.2 l 326.9,1229.4 c 12,54.3 17,32.2 25.3,93.6 7,51.1 13.2,50.5 25,97.4 11.3,45.5 25.1,60.3 30.4,85.9 10.5,49.4 3.1,55.2 19.4,104.8 l 148.7,571.3 c 27.2,79.5 28.3,177.4 77.6,282.9 l 48.3,189.4 c 2.7,12.6 1.5,12.3 5.7,26.2 9.6,32.1 17,27.9 22.4,63.4 l 48.5,194.5 c 17.2,42.2 8.1,54.7 18.8,102.1 11.4,50.6 35.6,129.4 50.7,189.9 l 90.2,324.5 c 13.6,55.7 -12.6,25.1 28.5,45 23.6,-11.4 17.9,4 30.2,-64.1 z m -3621.6,-5635 c -0.1,32.9 4.9,32.5 23.6,61.9 l 322.9,556.1 c 60.4,102.1 113.3,205.2 171.8,309.6 l 352.9,605 c 68,122.5 141.8,274.7 217.5,384 l 605.8,1075.4 c 20.7,35.8 28.6,41.4 46.9,72.2 l 65,115.3 c 6.9,13.6 11.7,28.9 18.9,42 14.2,25.9 31.4,38 48,70.1 16,31.1 24.7,40.5 43.5,75.9 18.2,34.3 28.8,45.9 44.7,75.4 l 236.6,424.4 c 9.2,13.9 14,21.1 22.8,37.8 7.4,14.2 14.8,30.2 20.2,41 34.5,69.8 34.4,52.9 68.1,110.1 l 477,834.5 119.1,220.5 c 8,11.6 4,8.9 14.8,14.8 14.6,-29.1 9.9,-48.5 -2.1,-79.3 -25.3,-64.7 -32.6,-188.6 -63.1,-257.8 -0.9,-2.1 -2.3,-4.6 -3.2,-6.8 l -71.9,-258.9 c -19.9,-98.5 -63.4,-189.3 -83.4,-351.4 l -53.7,-162 c -10.6,-49 3.1,-47.4 -17.6,-90.9 l -45.7,-168.3 c -8.7,-97.3 -9,-25.8 -49.7,-165.8 -17.5,-59.9 8.7,-13.1 -32.5,-138.2 l -61.1,-206.7 c -8.8,-33 -18.8,-60.4 -25.1,-83.6 -27.8,-103.5 -83.9,-371.3 -110.4,-430.8 -8.2,-18.4 -53.1,-220.9 -93.9,-333.9 l -39.8,-180.7 c -8.1,-63.1 -100.7,-362.5 -115.6,-434 l -109.2,-434.1 c -63,-222.1 -138.8,-576.2 -204.3,-774.9 -11,-33.2 -10.9,-52.4 -23.7,-85.7 l -131.3,-509.1 c -6.9,-37.5 -18.4,-52.2 -24.9,-84.5 -9.6,-47.7 -31.6,-226 -83.3,-237.2 l -1669,-0.5 c -0.1,44.5 78.6,177.7 109.6,230.5 25,42.5 56,106.9 84.8,118.6"
         style="fill:#010200;fill-opacity:1;fill-rule:evenodd;stroke:none"
         id="path22" />
      <path
         d="m 14221.6,20470 c 62.4,32.6 23.6,54.7 84.7,104 -0.3,-38.6 -2.6,-81.9 -14.9,-115.8 -15.4,-42.2 -14,-61.4 -27.3,-103.7 -34,-107.9 -216,-421.9 -270.8,-507.7 l -187.5,-318.5 c -16.7,-40.7 -24.7,-56.3 -44.7,-89.1 l -142.6,-247.9 c -82.5,-114.9 -169.9,-314.6 -255.4,-444.9 l -556.3,-972.6 c -1.1,-1.9 -2.6,-4.4 -3.7,-6.3 l -22.1,-37.9 c -1.2,-1.9 -2.7,-4.5 -3.8,-6.3 l -175.1,-303.5 c -1.2,-2 -2.7,-4.5 -3.8,-6.4 -10,-17 -4.6,-5.7 -14.8,-24.3 l -44.7,-85.7 c -106.1,-206.9 -307.1,-517.7 -421.2,-740.9 -68.9,-135 -158.9,-262.5 -229.9,-411.6 -33.4,-70.1 8.1,-13.4 -28.8,-59.3 -1.2,-1.5 -3.4,-3.5 -4.7,-5 l -14.3,-16.7 c -13.8,-19.5 -35,-60.8 -47.6,-82.7 l -110,-200.1 c -1.2,-1.7 -3,-4.1 -4.2,-5.9 l -314.8,-530.3 -97.9,-5.1 c 3,50.7 71,152.2 103.5,206.2 18.9,31.4 58.1,92.1 66.5,127.3 -28.8,-11.7 -59.8,-76.1 -84.8,-118.6 -31,-52.8 -109.7,-186 -109.6,-230.5 l 1669,0.5 c 51.7,11.2 73.7,189.5 83.3,237.2 6.5,32.3 18,47 24.9,84.5 l 131.3,509.1 c 12.8,33.3 12.7,52.5 23.7,85.7 65.5,198.7 141.3,552.8 204.3,774.9 l 109.2,434.1 c 14.9,71.5 107.5,370.9 115.6,434 l 39.8,180.7 c 40.8,113 85.7,315.5 93.9,333.9 26.5,59.5 82.6,327.3 110.4,430.8 6.3,23.2 16.3,50.6 25.1,83.6 l 61.1,206.7 c 41.2,125.1 15,78.3 32.5,138.2 40.7,140 41,68.5 49.7,165.8 l 45.7,168.3 c 20.7,43.5 7,41.9 17.6,90.9 l 53.7,162 c 20,162.1 63.5,252.9 83.4,351.4 l 71.9,258.9 c 0.9,2.2 2.3,4.7 3.2,6.8 30.5,69.2 37.8,193.1 63.1,257.8 12,30.8 16.7,50.2 2.1,79.3 -10.8,-5.9 -6.8,-3.2 -14.8,-14.8 l -119.1,-220.5"
         style="fill:#52e928;fill-opacity:1;fill-rule:evenodd;stroke:none"
         id="path24" />
      <path
         d="m 11264.6,14739.4 5.3,30.6 c 129.2,10.7 104.1,-14.3 154.7,-95.4 l 175.1,-294.1 c 15.4,-23.7 5.2,-6.2 20.9,-38 l 214.9,-387.3 c 39.9,-51.4 13.2,2.5 49.5,-78.7 l 213.6,-377.6 c 39,-65 59.9,-97.5 96.4,-175.2 38.6,-82.1 102.6,-169.1 144.7,-256.4 l 220.9,-367.7 c 1.2,-1.5 3.2,-3.7 4.3,-5.2 l 116.9,-200.7 c 29,-50.9 42,-96.8 88.8,-172.7 l 193.7,-335.7 c 60,-115.7 94.4,-151.4 124,-204.9 l 116.5,-214.1 c 2.1,-4.5 19.2,-32.7 26.8,-44 l 46.2,-83 c 10.9,-20.7 15.3,-28.8 25.1,-45.5 18.9,-32.3 26.8,-48.9 48.2,-81.7 1.2,-1.8 2.9,-4.2 4.1,-6 l 215.7,-372.9 c 45.8,-106.2 30.2,-52.7 66.7,-124 l 144.2,-257.4 c 50.6,-93.3 3.5,22.4 74,-124.1 6,-12.6 14.8,-27.4 25.4,-45.2 l 122.9,-207.9 c 13.3,-20.1 7.8,-14.4 18.7,-40.2 25.9,-61.2 60.6,-104 91.4,-158.9 83.6,-149.14 119.9,-202.42 161.8,-374.87 5.4,-22.02 14.2,-32.59 19.4,-49.83 l 28.4,-155.44 c -6,31.05 -25.6,58.97 -51.3,72.09 9,-46.58 35,-83.14 61.1,-126.03 9.1,-14.97 -0.6,-14.35 21.9,-26.7 14.7,29.03 10,48.42 -2.1,79.34 -27.6,71.07 -30.3,171.44 -65.9,265.76 l -72.2,257.65 c -6,29.46 -13.2,40.08 -22.6,78.14 -7,28.59 -17.5,54.39 -24.6,84.79 l -49.7,230 c -11.8,24.6 -1,-1 -15.5,33.9 -11.4,27.3 -20.8,50.9 -28.2,79.3 -2.9,10.9 -2.7,13.2 -6.7,24.4 -7.5,21 -2.4,5.1 -9.4,20.2 l -94.8,385.9 c -6.5,22 -6.1,27.9 -13.6,46.9 -38.9,98.4 -13.2,51.3 -32.6,124.5 l -110.6,430.9 c -7.7,37.7 -19.7,46.3 -25.3,83.9 l -309,1214 c -55.4,138.2 -24.4,71.7 -47.8,171.3 -7.1,29.9 -18.3,47.3 -26,81.6 l -136,514.7 c -13.5,32.8 -8.8,56.8 -20.9,89.7 -13.7,37.3 -13.7,30.7 -23.6,83.9 -7.5,40.2 -14.5,56.4 -20.7,94.5 l -56.2,222.2 c -40.7,108.2 -24.5,135.9 -80.8,287.5 -13.9,37.6 -8.9,57.7 -16.7,97 -4.8,24.3 -16.7,48.7 -24.4,72.9 -33,103.4 -58.7,308.9 -109.6,320 l -1630.4,1.9 c -16.3,-1.6 -12.9,-2 -25.1,-5.2 -1.8,-0.5 -5.9,-5.2 -7.1,-3 -1.2,2.1 -4.7,-1.9 -6.8,-3.3 3.4,-41 -4.9,-21.8 24,-40.6"
         style="fill:#51e728;fill-opacity:1;fill-rule:evenodd;stroke:none"
         id="path26" />
      <path
         d="m 15057.1,8805.65 c -6.7,92.38 47.3,123.15 -26.4,314.34 l -123.3,454.31 c -11.9,36.36 -9.7,64.2 -19.8,102.8 l -223.2,835.2 c -12.8,54 -28.8,137.7 -44.9,187.4 -23.7,73.1 2.2,58.7 -33.6,147.3 -0.9,2.4 -2.2,4.8 -3.1,7.3 l -9.8,43 c -8.2,47.7 -19.5,54.7 -26.3,92.8 -11.2,62.5 -5.2,39 -22.1,86.2 l -135.1,514.5 c -42.2,101.6 -11,73.9 -33.9,137 l -173.2,644.9 c -17.8,53.1 -35.2,121.9 -50.7,176.4 -17.5,61.8 -32.4,133 -49.8,192.1 -17.6,59.9 -29,123 -46.6,182.2 l -77.5,267.6 c -11.4,62.2 -22,40 -27.8,80.6 -11.6,81.8 -17.6,136.2 -41.8,204.2 l -50.2,175.2 c -15.9,76.6 2,3 -18.2,46.8 -18.1,39.1 -1.6,48.6 -20,98.4 -37.8,102.3 -21.6,131.1 -57.6,232.7 l -52.6,182.1 c -14.2,123.9 -43.7,148.9 -53.6,179.4 l -61.3,289.4 c -11.5,78.2 -26.5,64 -33.5,85.8 l -137.7,0.8 c 3,-71.6 120.7,-465.4 141.6,-595.1 6.1,-37.7 17.8,-48.5 28,-89 l 123.1,-488 c 11.9,-41.6 14,-43.9 22.4,-101.8 7.9,-54.2 19.8,-36.6 27.6,-92 8.9,-62.7 -2.9,-36.3 23.3,-91.3 22.7,-47.6 36.1,-171.5 50.4,-200.6 27.5,-56.2 7.4,-48.4 19.9,-104.9 8.6,-38.7 18.8,-3.7 27.4,-93.4 6.9,-71.6 48.2,-88.1 56.9,-180.3 7.3,-76.4 176.8,-636.7 202.3,-753.7 l 346.2,-1355.3 c 12.4,-30.8 15.1,-60 26.9,-93.6 l 54.1,-182.4 c 13.6,-41.9 10.7,-58.8 21.3,-101.3 l 81.3,-285.68 c 31.1,-144.88 57.3,-196.35 95.3,-386.49 6.9,-34.24 17.4,-47.99 26.7,-91.95 10.2,-47.97 19,-45.78 27.2,-90.88 l 172,-672.33 c 8.3,-44.16 -1.4,-70.35 32.6,-82.62 31.2,11.71 25.1,44.35 31.8,84.59 6.1,36.29 20.1,56.05 15.3,87.31"
         style="fill:#3bad00;fill-opacity:1;fill-rule:evenodd;stroke:none"
         id="path28" />
      <path
         d="m 13403.6,15254.1 c 140.6,4.7 155.3,-22 171.1,96.2 10.5,79.1 14.4,19.7 29.9,82.6 16.2,66 21.8,131.3 43.3,190.1 19.2,52.3 34.2,132.8 49.1,192.5 l 51.6,175.9 c 11.6,61.8 5.8,49.4 23.4,96.4 l 48.3,193 c 12.8,38.3 13.5,38.5 22.7,87.4 l 174.8,641 c 10.8,56.8 17.2,29.7 26.1,82.7 19.4,115.6 17.9,48.2 28.3,91.6 8,33.1 12,156.6 50,254.7 7.9,20.5 4.9,13.9 11.5,39.6 9.8,38.1 19,49.6 26.4,93 l 68.9,282.5 c 15.5,52.4 38.6,129.3 48.1,186.1 9.9,58.6 17.7,36.3 29.2,83.3 l 70,282.1 c 31.3,78.6 7.4,-7.7 24.5,94.2 4.6,27.1 14.7,52.2 24.6,86.3 13,44.8 22,34.9 29.7,85.4 l 26.7,93.3 c 4,19.9 2.6,34.8 7.3,55 11.4,49.1 2.5,2.6 16.9,43.1 l 44.3,185.5 c 9.5,34.7 15.5,48 25.3,93.1 l 46.2,186.8 c 10.9,33.6 9.9,70.1 20.3,102.2 l 99.9,357.2 c 21.2,65.1 34.6,176.6 42.3,202.7 l 70.2,269.3 c 11.4,30.4 27.7,65.4 32.6,84.1 8.7,33.2 8.3,67.9 16.8,96.1 l 78.2,281.2 c 6.3,52.8 11.9,48.5 24.3,82.5 20.9,57.6 28.7,130.4 44.4,188 32.8,120 -2.1,125.2 6.2,223.5 l -16.8,58.9 c -12.3,68.1 -6.6,52.7 -30.2,64.1 -41.1,-19.9 -14.9,10.7 -28.5,-45 l -90.2,-324.5 c -15.1,-60.5 -39.3,-139.3 -50.7,-189.9 -10.7,-47.4 -1.6,-59.9 -18.8,-102.1 l -48.5,-194.5 c -5.4,-35.5 -12.8,-31.3 -22.4,-63.4 -4.2,-13.9 -3,-13.6 -5.7,-26.2 l -48.3,-189.4 c -49.3,-105.5 -50.4,-203.4 -77.6,-282.9 l -148.7,-571.3 c -16.3,-49.6 -8.9,-55.4 -19.4,-104.8 -5.3,-25.6 -19.1,-40.4 -30.4,-85.9 -11.8,-46.9 -18,-46.3 -25,-97.4 -8.3,-61.4 -13.3,-39.3 -25.3,-93.6 L 14043.6,17737 c -14.3,-57.1 -22.2,-33.9 -29,-87.2 l -67.9,-296.6 c -8.2,-32 -15.9,-43.4 -27.1,-91 -47.5,-202.9 -135.4,-495.5 -170.9,-672.8 -25,-125.1 -120.9,-409.7 -149.6,-569.3 -7.7,-42.7 -15,-46.8 -26.6,-93.1 l -49.5,-191.6 c -12.4,-48.7 -3.8,-49.5 -23.6,-94.8 -18,-41.4 -93.4,-335.3 -95.8,-386.5"
         style="fill:#3daf00;fill-opacity:1;fill-rule:evenodd;stroke:none"
         id="path30" />
      <path
         d="m 15774.7,9765.05 c -10.4,-25.63 -24.8,-62.15 -33.3,-105.46 -14.3,-73.1 -12.4,-4.58 -30.4,-108.42 -15.9,-91.61 -62.4,-184.31 -41,-220.19 l 73.1,126.5 c 11.4,18.96 23.4,43.71 36.2,63.86 83.6,130.82 174.7,287.34 243.3,427.14 l 16.2,34.51 c 6.9,12.46 9.5,14.31 19.8,28.51 21.3,29.3 239.9,404.2 261.2,462.1 35.9,97.3 13.6,22.4 52.4,84.8 13.2,21.2 18.3,38.7 34.5,66.1 15,25.4 20.9,35.1 33.3,56.8 l 141.1,238 c 48,92.6 96.5,150.2 107.7,178.8 l 98.8,184.8 c 49.1,90.3 92.5,161.2 143.5,245.6 l 489.2,861.5 c 99.2,151.7 286.6,529.6 354.1,595.7 26.8,26.2 75.9,57.8 125.4,60.9 150,9.3 61.8,-25.9 160.2,-27.5 6.7,29.9 16.5,40.6 29.4,61.6 l 118.8,211.1 c 12.4,22.5 6.9,12.1 18.7,31.3 1.6,2.5 6.1,9.8 7.6,12.4 l 58.9,101.1 c 1.1,2 2.3,4.6 3.3,6.7 1.1,2.1 2.1,4.8 3.1,6.9 l 40.4,59.8 c -16.4,92.5 -120.2,44.2 -107.7,250.8 5.4,89.7 181,366.5 237.9,457.5 l 82,149.4 c 15.6,25.2 26.5,40 41.7,67.6 l 156.8,288.9 2,46.8 c -149.2,0 -117.2,-23.7 -223.6,-223.9 l -44.2,-84.4 c -11.9,-20.1 -32.9,-35.8 -71.3,-107.4 l -139.6,-239.3 c -12.6,-22.2 -7.4,-15.4 -19,-42.4 l -112.8,-197.4 c -28.9,-50.2 -57.5,-108.6 -90.2,-159.8 -15.4,-24.3 -37.1,-49.3 -51.4,-75.9 l -216.7,-375.1 c -33.1,-47.1 -15.2,-43.8 -46.3,-83.6 -55.7,-71.4 -10.6,-14.2 -53.3,-95.3 -18.1,-34.4 -26.9,-49.2 -46.7,-83.5 l -46,-73.8 c -2,-3 -10.7,-17.3 -15,-24.7 -10.3,-18 -2.8,-4.1 -10.7,-19.1 l -311.1,-549.1 c -77.9,-160.8 -206.2,-336.1 -290.4,-522.6 -14.6,-32.2 -31.4,-47.6 -48.2,-83.1 l -135.8,-231.1 c -32.2,-55.8 -56.7,-100.8 -90.4,-160 l -85.9,-134.8 c -4.4,-5.5 -4.7,-3.2 -11.6,-15.5 l -81.6,-160.1 c -78.2,-151.3 -255.2,-436.9 -320.2,-573 l -39.8,-67.7 c -35.7,-52.6 -57.1,-97.9 -93,-157.6 l -183.7,-326.63 c -1,-1.79 -2.7,-4.19 -3.8,-5.97 l -57.2,-100.7 c -24.8,-37.39 -7.7,-17.82 -38.7,-32.45"
         style="fill:#4fe222;fill-opacity:1;fill-rule:evenodd;stroke:none"
         id="path32" />
      <path
         d="m 11264.6,14739.4 c 3,-25 117.6,-216.6 132,-242.2 l 622,-1088.1 c 54,-97.3 169.8,-280.8 198.6,-373.8 40.4,-130.5 -62.1,-198.6 -117.2,-255.9 l 250.6,-438.8 c 1.1,-1.9 2.8,-4.3 3.9,-6.2 l 35.5,-67.6 c 55.3,-2.5 193.9,77.3 296.7,-51.3 l 248.5,-410.5 c 20.8,-32.2 35.1,-62.4 50.3,-88.9 11.4,-19.9 18.7,-33.8 29.3,-50.9 7.1,-11.5 -1.8,2 7.8,-12.6 l 8.3,-11.9 c 13.3,-19.1 -0.7,2.7 12.3,-17 51.7,-78.4 153.4,-283.8 209,-382 l 99.4,-159.4 c 1.1,-1.7 2.9,-4 4,-5.7 27.5,-45.2 4.6,-28.5 60.4,-110.1 l 160.9,-290.1 c 18,-30.7 43.1,-60.5 54.7,-82.5 l 448,-781.17 c 1,-2.48 2.1,-5.12 3.1,-7.57 l 157.2,-297.25 c 1.1,-2.07 2.3,-4.75 3.5,-6.75 17.4,-31.02 2.2,-17.55 29.1,-33.71 25.7,-13.12 45.3,-41.04 51.3,-72.09 l -28.4,155.44 c -5.2,17.24 -14,27.81 -19.4,49.83 -41.9,172.45 -78.2,225.73 -161.8,374.87 -30.8,54.9 -65.5,97.7 -91.4,158.9 -10.9,25.8 -5.4,20.1 -18.7,40.2 l -122.9,207.9 c -10.6,17.8 -19.4,32.6 -25.4,45.2 -70.5,146.5 -23.4,30.8 -74,124.1 l -144.2,257.4 c -36.5,71.3 -20.9,17.8 -66.7,124 l -215.7,372.9 c -1.2,1.8 -2.9,4.2 -4.1,6 -21.4,32.8 -29.3,49.4 -48.2,81.7 -9.8,16.7 -14.2,24.8 -25.1,45.5 l -46.2,83 c -7.6,11.3 -24.7,39.5 -26.8,44 l -116.5,214.1 c -29.6,53.5 -64,89.2 -124,204.9 l -193.7,335.7 c -46.8,75.9 -59.8,121.8 -88.8,172.7 l -116.9,200.7 c -1.1,1.5 -3.1,3.7 -4.3,5.2 l -220.9,367.7 c -42.1,87.3 -106.1,174.3 -144.7,256.4 -36.5,77.7 -57.4,110.2 -96.4,175.2 l -213.6,377.6 c -36.3,81.2 -9.6,27.3 -49.5,78.7 l -214.9,387.3 c -15.7,31.8 -5.5,14.3 -20.9,38 l -175.1,294.1 c -50.6,81.1 -25.5,106.1 -154.7,95.4 l -5.3,-30.6"
         style="fill:#82fc5b;fill-opacity:1;fill-rule:evenodd;stroke:none"
         id="path34" />
      <path
         d="m 18606,15543.1 c -1.3,32.5 -2,13.2 -15.3,36.3 l -174.9,317 c -17.5,32.4 -24,46.3 -38.7,71.3 l -41.1,68.6 c -12.1,19.5 -26,44.9 -40.3,69.4 l -102.9,197.8 c -1.1,1.7 -3,4 -4.1,5.7 -1.2,1.7 -3.1,4 -4.3,5.7 l -528.7,900.2 c -112.7,226.9 -227.4,320.7 -158.9,477.5 28.5,65.3 61.5,71.4 97.2,117.4 l -16.9,26.8 c -7.2,11.7 -12,21.5 -17.9,32.2 l -238.2,411.9 c -9,14.5 -11,14.2 -21,30.7 -41.7,-4.5 -40.6,-20.4 -109.6,-22.2 -36.6,-0.9 -80,-2.1 -108.3,13.5 -84.3,46.4 -158.8,196.7 -210.1,289.6 l -349.4,599.8 c -27.8,42.7 -24.7,58.7 -50.3,100.3 l -295.5,513.1 c -6.1,13.6 -12.4,23.2 -22.1,38.7 -17.1,27.2 -26.3,46.7 -42.9,76.9 l -133.8,237.3 c -26.2,53.3 -57.3,109.2 -86.4,153.3 -34.7,52.7 -61.6,105.3 -90.4,160.1 l -87.4,143.5 c -23,6.1 -25.9,-8.5 -14.9,6.4 -5,-48.2 8.4,-56 20,-109.3 75,-344.7 163.9,-382.7 286.4,-625 33.1,-65.7 58.6,-105.3 98.9,-172.7 l 187.3,-333 c 30.8,-49.6 62.4,-117.7 97.8,-162.8 l 93.5,-176.3 c 111.8,-201.3 289.9,-495.2 383,-678.2 l 234.7,-414.6 c 102.9,-162.3 195.2,-339.8 298.8,-499.3 l 446.7,-807.3 c 13.8,-25.6 3.7,-9.5 22.5,-33.7 l 150.9,-238 c 1,-1.9 2,-4.6 3,-6.6 14.7,-31.8 6.7,-20.8 22.6,-48.8 l 593.8,-1046.9 c 28.1,-27.8 65.1,-20.2 113.9,-20.2 -3.2,44.9 -62.3,134.8 -94,188.6 -25.4,43.4 -46.6,61 -52.7,105.3"
         style="fill:#50e325;fill-opacity:1;fill-rule:evenodd;stroke:none"
         id="path36" />
      <path
         d="m 14221.6,20470 -477,-834.5 c -33.7,-57.2 -33.6,-40.3 -68.1,-110.1 -5.4,-10.8 -12.8,-26.8 -20.2,-41 -8.8,-16.7 -13.6,-23.9 -22.8,-37.8 l -236.6,-424.4 c -15.9,-29.5 -26.5,-41.1 -44.7,-75.4 -18.8,-35.4 -27.5,-44.8 -43.5,-75.9 -16.6,-32.1 -33.8,-44.2 -48,-70.1 -7.2,-13.1 -12,-28.4 -18.9,-42 l -65,-115.3 c -18.3,-30.8 -26.2,-36.4 -46.9,-72.2 l -605.8,-1075.4 c -75.7,-109.3 -149.5,-261.5 -217.5,-384 l -352.9,-605 c -58.5,-104.4 -111.4,-207.5 -171.8,-309.6 l -322.9,-556.1 c -18.7,-29.4 -23.7,-29 -23.6,-61.9 -8.4,-35.2 -47.6,-95.9 -66.5,-127.3 -32.5,-54 -100.5,-155.5 -103.5,-206.2 l 97.9,5.1 314.8,530.3 c 1.2,1.8 3,4.2 4.2,5.9 l 110,200.1 c 12.6,21.9 33.8,63.2 47.6,82.7 l 14.3,16.7 c 1.3,1.5 3.5,3.5 4.7,5 36.9,45.9 -4.6,-10.8 28.8,59.3 71,149.1 161,276.6 229.9,411.6 114.1,223.2 315.1,534 421.2,740.9 l 44.7,85.7 c 10.2,18.6 4.8,7.3 14.8,24.3 1.1,1.9 2.6,4.4 3.8,6.4 l 175.1,303.5 c 1.1,1.8 2.6,4.4 3.8,6.3 l 22.1,37.9 c 1.1,1.9 2.6,4.4 3.7,6.3 l 556.3,972.6 c 85.5,130.3 172.9,330 255.4,444.9 l 142.6,247.9 c 20,32.8 28,48.4 44.7,89.1 l 187.5,318.5 c 54.8,85.8 236.8,399.8 270.8,507.7 13.3,42.3 11.9,61.5 27.3,103.7 12.3,33.9 14.6,77.2 14.9,115.8 -61.1,-49.3 -22.3,-71.4 -84.7,-104"
         style="fill:#85f660;fill-opacity:1;fill-rule:evenodd;stroke:none"
         id="path38" />
    </g>
  </g>
</svg>
